<!DOCTYPE svg PUBLIC "-//W3C//DTD SVG 1.1//EN" "http://www.w3.org/Graphics/SVG/1.1/DTD/svg11.dtd">

<!-- Uploaded to: SVG Repo, www.svgrepo.com, Transformed by: SVG Repo Mixer Tools -->
<svg width="100px" height="100px" viewBox="-0.96 -0.96 33.92 33.92" version="1.1" xmlns="http://www.w3.org/2000/svg" xmlns:xlink="http://www.w3.org/1999/xlink" xmlns:sketch="http://www.bohemiancoding.com/sketch/ns" fill="#d3c6b7" stroke="#d3c6b7">

<g id="SVGRepo_bgCarrier" stroke-width="0"/>

<g id="SVGRepo_tracerCarrier" stroke-linecap="round" stroke-linejoin="round"/>

<g id="SVGRepo_iconCarrier"> <title>arrow-right-circle</title> <desc>Created with Sketch Beta.</desc> <defs> </defs> <g id="Page-1" stroke-width="1.216" fill="none" fill-rule="evenodd" sketch:type="MSPage"> <g id="Icon-Set" sketch:type="MSLayerGroup" transform="translate(-308.000000, -1087.000000)" fill="#d3c6b7"> <path d="M324,1117 C316.268,1117 310,1110.73 310,1103 C310,1095.27 316.268,1089 324,1089 C331.732,1089 338,1095.27 338,1103 C338,1110.73 331.732,1117 324,1117 L324,1117 Z M324,1087 C315.163,1087 308,1094.16 308,1103 C308,1111.84 315.163,1119 324,1119 C332.837,1119 340,1111.84 340,1103 C340,1094.16 332.837,1087 324,1087 L324,1087 Z M330.535,1102.12 L324.879,1096.46 C324.488,1096.07 323.855,1096.07 323.465,1096.46 C323.074,1096.86 323.074,1097.49 323.465,1097.88 L327.586,1102 L317,1102 C316.447,1102 316,1102.45 316,1103 C316,1103.55 316.447,1104 317,1104 L327.586,1104 L323.465,1108.12 C323.074,1108.51 323.074,1109.15 323.465,1109.54 C323.855,1109.93 324.488,1109.93 324.879,1109.54 L330.535,1103.88 C330.775,1103.64 330.85,1103.31 330.795,1103 C330.85,1102.69 330.775,1102.36 330.535,1102.12 L330.535,1102.12 Z" id="arrow-right-circle" sketch:type="MSShapeGroup"> </path> </g> </g> </g>

</svg>