<?xml version="1.0" encoding="UTF-8"?> 
<svg xmlns="http://www.w3.org/2000/svg" id="Layer_2" viewBox="0 0 152.43 195.99">
  <defs>
    <style>
      .cls-1{fill:none;}
      .cls-1, .cls-2{stroke-width:0px;}
      .cls-2{fill:#FFFFFF;} /* Updated fill color to white */
    </style>
  </defs>
  <g id="Layer_1-2">
    <rect class="cls-1" width="152.43" height="195.99"></rect>
    <path class="cls-2" d="M101.85,88.51c-3.91-3.52-7.74-7.13-11.61-10.69,0,0-5.75-5.4-5.75-5.4-2.03-1.85-3.48-4.41-3.98-7.16-1.54-7.2,4.45-14.49,11.84-14.37,4.37-.12,7.95,3.19,10.64,6.1,0,0-1.48,0-1.48,0,2.7-2.94,6.33-6.26,10.73-6.11,11.43.32,15.96,14.52,7.39,21.78-5.72,5.15-12,10.83-17.78,15.85,3.69-3.79,7.48-7.49,11.22-11.24l5.66-5.56c1.85-1.74,3.15-3.98,3.58-6.43.97-4.86-1.91-10.13-6.56-11.8-5.12-2.13-9.43,1.02-12.75,4.85-.39.44-1.09.44-1.48,0-1.72-1.89-3.59-3.68-5.76-4.73-7.17-3.24-15.13,3.89-13.71,11.4.37,2.44,1.58,4.72,3.36,6.49l5.52,5.64c3.64,3.8,7.33,7.55,10.93,11.39h0Z"></path>
    <path class="cls-2" d="M2.48,129.55c6.06-5.96,13.04-12.41,19.31-18.23,1.98-1.82,4.57-4.35,6.88-5.68,7.64-4.86,17.01-6.62,25.95-5.56,3,.33,5.93,1.09,8.76,1.82,5.64,1.43,20.25,5.13,25.72,6.52,7.65,1.37,10.34,11.3,1.75,13.69-2.66.91-6.29-.61-8.85-1.26-5.68-1.58-11.37-3.13-17.08-4.59,5.44,1.13,11.53,2.84,17.21,4.08,2.36.47,6.08,1.82,8.45.87,2.6-.77,3.98-3.57,3.53-6.07-.55-2.59-2.93-4.32-5.49-4.81-5.39-1.39-20.1-5.17-25.69-6.61-2.88-.74-5.65-1.5-8.52-1.87-9.95-1.33-20.71.97-28.52,7.47-7.51,6.64-15.72,13.97-23.4,20.24h0Z"></path>
    <path class="cls-2" d="M94.18,113.23c2.01-.86,4.25-1.08,6.37-1.55,0,0,6.47-1.14,6.47-1.14,3.11-.61,6.44-.86,9.42-1.89,4.23-3.47,8.12-7.27,12.19-10.95,2.96-2.52,5.67-5.51,9.38-6.96,1.67-.62,3.56-.28,5.09.55.21.09.42.15.66.14,5.78-2.08,8.41,3.39,6.2,8.24-1,2.08-4.31,6.3-5.61,8.27,0,0-7.59,10.71-7.59,10.71-2.59,3.72-6.23,6.73-10.23,8.73-4.42,2.3-24.98,13.38-29.1,15.32-6.16,2.82-13.47,3.04-19.84.98-8.43-2.35-16.83-4.88-25.22-7.29-4.15-1.16-8.53-1.58-12.81-.93-4.24.54-8.36,2.73-12.29,4.31-.05.03-.1-.06-.04-.09,3.95-1.85,7.85-4.14,12.21-4.89,4.36-.85,8.91-.59,13.2.52,8.49,2.25,16.94,4.42,25.39,6.74,6.16,1.89,12.79,1.62,18.61-1.09,3.77-1.91,24.76-13.15,28.95-15.34,3.82-1.93,7.15-4.62,9.61-8.07l7.7-10.64c1.14-1.71,4.7-6.14,5.58-7.92,1.57-2.97.43-7.69-3.71-6.32-.24.09-.72.21-1.02.19-.65.02-1.25-.29-1.82-.58-1.65-.8-3.28-.59-4.9.34-6.45,4.02-11.59,9.84-17.5,14.61-1.1.79-2.16,2.12-3.46,2.47-4.71,1.03-10.64,1.69-15.45,2.38-1.86.33-4.68.5-6.44,1.16h0Z"></path>
  </g>
</svg>