<?xml version="1.0" encoding="UTF-8"?>
<svg xmlns="http://www.w3.org/2000/svg" id="Layer_2" viewBox="0 0 152.43 195.99">
  <defs>
    <style>
      .cls-1, .cls-2, .cls-3 { fill: none; }
      .cls-1, .cls-4 { stroke-width: 0px; }
      .cls-2 { stroke-linecap: round; }
      .cls-2, .cls-3 { stroke: #FFFFFF; stroke-linejoin: round; stroke-width: 2px; }
      .cls-4 { fill: #FFFFFF; }
    </style>
  </defs>
  <g id="Layer_1-2">
    <rect class="cls-1" width="152.43" height="195.99"></rect>
    <path class="cls-4" d="M75.45,137.62c-2.34-.02-8.41-.05-10.68-.06-.3-.04-1.97.06-2.26-.08-.65-.2-1.14-.67-1.62-1.09-1.81-1.58-3.65-3.49-4.66-5.77-1.1-2.39-1.16-4.9-1.6-7.12-.47-2.22-1.24-4.46-2.19-6.56-1.91-4.35-5.12-7.94-7.09-12.32-9.48-21.8,9.3-45.47,32.28-44.48,19.9.31,36.65,19.95,31.8,39.7-1.41,7.16-7.31,12.29-9.76,18.92-1.53,4.46-1.3,9.61-3.99,13.8-1.2,1.96-2.91,3.6-4.89,4.75-.22.14-.47.23-.73.24-.08,0-.29,0-.38,0,0,0-14.24.07-14.24.07h0ZM75.45,135.64l14.24.07h.22s.12,0,.07,0c-.06,0-.12.02-.17.05-.02.01.05-.03.06-.04.78-.45,1.52-.97,2.18-1.57,2.58-2.3,3.79-5.47,4.43-8.88.47-2.29.84-4.69,1.67-7.03,2.5-6.75,8.41-11.59,9.95-18.72,2.37-9.05-.45-18.96-6.23-26.17-16.04-20.1-48.45-14.15-56.31,10.33-2.1,6.62-1.86,14.05,1.07,20.37,1.99,4.27,5.28,7.89,7.24,12.25,1.03,2.21,1.85,4.48,2.39,6.89.49,2.41.61,4.76,1.55,6.71,1.07,2.32,3.26,4.42,5.18,5.82,3.19-.02,9.21-.05,12.46-.07h0Z"></path>
    <path class="cls-2" d="M63.6,136.63h25.73c.32,0,.58.26.58.58v9.19c0,5.3-4.3,9.59-9.59,9.59h-7.7c-5.3,0-9.59-4.3-9.59-9.59v-9.19c0-.32.26-.58.58-.58Z"></path>
    <line class="cls-2" x1="63.02" y1="142.52" x2="89.91" y2="142.52"></line>
    <line class="cls-3" x1="63.74" y1="149.35" x2="89.19" y2="149.35"></line>
    <path class="cls-2" d="M73.83,155.97h6.33c.28,0,.5.22.5.5v.44c0,1.38-1.12,2.5-2.5,2.5h-2.33c-1.38,0-2.5-1.12-2.5-2.5v-.44c0-.28.22-.5.5-.5Z"></path>
    <path class="cls-4" d="M43.34,62.59c-4.46-2.82-8.15-6.79-10.59-11.47,4.47,2.81,8.14,6.8,10.59,11.47h0Z"></path>
    <path class="cls-4" d="M108.27,62.59c2.45-4.67,6.12-8.66,10.59-11.47-2.44,4.68-6.13,8.66-10.59,11.47h0Z"></path>
    <path class="cls-4" d="M76.85,52.2c-1.4-5.09-1.45-10.51-.11-15.61,1.42,5.08,1.44,10.51.11,15.61h0Z"></path>
    <path class="cls-4" d="M118.86,85.15c4.3-3.06,9.37-4.97,14.63-5.46-4.29,3.07-9.38,4.96-14.63,5.46h0Z"></path>
    <path class="cls-4" d="M33.57,85.15c-5.25-.5-10.34-2.38-14.63-5.46,5.26.49,10.33,2.39,14.63,5.46h0Z"></path>
    <path class="cls-4" d="M79.45,136.47c0-.21.54-34.78.55-34.96,0,0,.13-.12.13-.12l7.74-7.2s.11.11.11.11l-7.2,7.74.13-.32.54,34.76s-2,0-2,0h0Z"></path>
    <polygon class="cls-4" points="72.04 136.47 72.58 101.71 72.71 102.03 65.51 94.29 65.62 94.18 73.36 101.38 73.49 101.51 73.5 101.71 74.04 136.47 72.04 136.47 72.04 136.47"></polygon>
  </g>
</svg>