<?xml version="1.0" encoding="UTF-8"?>
<svg xmlns="http://www.w3.org/2000/svg" id="Layer_2" viewBox="0 0 178.59 195.99">
  <defs>
    <style>
      .cls-1 { fill: none; stroke: #FFFFFF; stroke-width: 0px; }
      .cls-2 { fill: #FFFFFF; }
      .cls-3 { fill: #FFFFFF; }
    </style>
  </defs>
  <g id="Layer_1-2">
    <rect class="cls-1" width="178.59" height="195.99"></rect>
    <path class="cls-3" d="M166.09,128.74c-8.7,9.78-21.01,15.58-33.31,19.5-30.73,9.15-66.13,8.37-95.8-4.18-5.92-2.7-11.63-5.94-16.64-10.06,10.56,7.53,22.93,11.99,35.5,14.77,33.24,7.41,84.55,4.6,110.26-20.03h0Z"></path>
    <path class="cls-3" d="M9.03,100.88c6.44-13.88,21.2-21.44,34.94-26.46,28.26-9.49,60.05-9.75,88.6-1.3,10.67,3.38,21.23,8.06,29.67,15.54,2.85,2.44,5.26,5.35,7.32,8.45-4.44-6-10.37-10.72-16.88-14.22-31.16-16.6-74.92-17.58-108.22-7.02-13.73,4.68-28.3,11.67-35.43,25.01h0Z"></path>
    <path class="cls-3" d="M153.31,115.55c-5.59,9.96-16.7,15.18-27.1,18.73-21.42,6.65-44.81,6.99-66.52,1.45-10.69-2.94-21.64-7.4-29.15-15.85,3.99,3.9,8.75,6.89,13.82,9.1,24.71,10.57,55.67,10.99,81.39,3.82,10.38-3.26,21.34-7.82,27.56-17.25h0Z"></path>
    <path class="cls-3" d="M30.35,95.57c22.37-24.87,82.61-24.92,110.02-8.33,2.32,1.45,4.72,3.06,6.75,4.9,2.13,1.79,3.91,3.97,5.42,6.28-3.33-4.43-7.81-7.79-12.65-10.32-27.54-14.87-86.13-15.1-109.54,7.48h0Z"></path>
    <path class="cls-3" d="M127.52,114.49c-14.57,14.63-54.16,14.34-70.63,2.85,2.76,1.39,5.62,2.51,8.58,3.3,16.87,4.79,47.74,4.93,62.05-6.15h0Z"></path>
    <path class="cls-3" d="M51.74,103.09c3.99-5.61,10.92-8.26,17.31-10.15,16.12-4.19,34.7-3.87,50.11,2.78,3.07,1.45,6.06,3.24,8.36,5.73-5.23-4.28-11.88-6.12-18.36-7.49-15.34-3.17-46.07-2.89-57.42,9.14h0Z"></path>
    <path class="cls-3" d="M99.76,113.61c-4.99,3.99-14.06,4-19-.09,6.29,1.41,12.69,1.41,19,.09h0Z"></path>
    <path class="cls-3" d="M78.77,108.22c3.94-5.7,15.06-5.66,20.6-2.4.91.55,1.77,1.25,2.33,2.14-5.23-3.19-17.86-3.27-22.93.27h0Z"></path>
    <path class="cls-2" d="M93.17,47.51l-3.88-4.89-3.88,4.89c-5.18,6.84-12.73,17-12.73,26.39,0,11.41,7.44,20.66,16.61,20.66s16.61-9.25,16.61-20.66c0-9.38-7.55-19.55-12.73-26.39Z"></path>
    <path class="cls-3" d="M93.17,47.51s-4.04-4.95-3.86-4.87c-6.23,8.04-13.02,16.52-15.42,26.55-2,9.39,2.63,21.45,12.53,24.04,10.52,2.43,18.52-8.34,18.96-18.01.66-10.47-6.29-19.65-12.21-27.71h0ZM93.17,47.51c6.01,8.19,13.3,17.06,13.14,27.76-.02,10.67-8.53,22.56-20.34,19.88-10.98-2.71-16-16.03-13.25-26.24,2.12-7.71,6.95-14.03,11.68-20.24,1.59-2.07,3.28-4.05,4.89-6.1.02,0,3.86,4.92,3.88,4.94h0Z"></path>
    <path class="cls-3" d="M99.76,76.98c.59,4.36-2.46,8.72-6.55,10.1-.58.2-1.18.33-1.77.45.52-.33,1.05-.58,1.56-.9,3.57-2.06,6.03-5.59,6.76-9.66h0Z"></path>
  </g>
</svg>